HTTP/1.1 200 OK
Server: Apache
Last-Modified: Tue, 28 Feb 2017 15:14:49 GMT
Access-Control-Allow-Origin: *
Cache-Control: max-age=31536000
Content-Type: image/svg+xml
Via: 1.1 google
x-fastly-backend-reqs: 32
Content-Length: 1963
Accept-Ranges: bytes
Date: Thu, 06 Dec 2018 05:02:20 GMT
Via: 1.1 varnish
Age: 3095213
Connection: keep-alive
X-Served-By: cache-ewr18140-EWR
X-Cache: HIT
X-Cache-Hits: 6
X-Timer: S1544072541.834710,VS0,VE0
Vary: Accept-Encoding

<?xml version="1.0" encoding="utf-8"?>
<!-- Generator: Adobe Illustrator 19.2.1, SVG Export Plug-In . SVG Version: 6.00 Build 0)  -->
<!DOCTYPE svg PUBLIC "-//W3C//DTD SVG 1.1//EN" "http://www.w3.org/Graphics/SVG/1.1/DTD/svg11.dtd">
<svg version="1.1" id="Layer_1" xmlns="http://www.w3.org/2000/svg" xmlns:xlink="http://www.w3.org/1999/xlink" x="0px" y="0px"
	 viewBox="0 0 55 26" style="enable-background:new 0 0 55 26;" xml:space="preserve">
<style type="text/css">
	.st0{fill:#F56400;}
</style>
<path class="st0" d="M22.1,2.8C21.5,6.1,20,7.3,18,7.5v1h2.4v8.4c0,2.3,1.6,3.5,3.6,3.5c1.6,0,3.3-0.7,3.9-2.1l-0.6-0.7
	c-0.3,0.5-1.1,1.1-2.2,1.1c-1.2,0-1.9-0.8-1.9-2.9V8.4l4,0.3l0.2-1.9L23.3,7V2.8H22.1L22.1,2.8z M30.7,15.7h-1
	c0.1,1.3,0.2,2.6,0,3.8c0,0,2.1,0.8,4.2,0.8c2.8,0,5.1-1.4,5.1-4c0-4.6-6.9-3.9-6.9-7c0-1.3,1.2-1.8,2.4-1.8c1,0,1.8,0.4,2,0.9
	l0.7,2l1-0.1c0-1,0.1-2.3,0.3-3.3c-0.9-0.4-2.7-0.6-3.9-0.6c-2.7,0-4.8,1.2-4.8,3.8c0,4.6,6.7,3.6,6.7,7c0,1.1-0.7,2-2.4,2
	c-1.6,0-2.3-0.8-2.6-1.6L30.7,15.7L30.7,15.7z M41.9,24.4c-0.8,0-1.1-0.4-1.2-0.9l-0.4-2.1l-1.1,0.1c-0.2,1.3-0.4,2.7-0.7,3.8
	c0.8,0.5,1.7,0.8,2.9,0.8c1.9,0,4.6-0.5,7.2-6.4L53,9.4c0.4-0.8,0.5-0.9,1.5-1.3L55,7.7v-1l-2.6,0.1l-2.8-0.1v1l0.7,0.2
	c0.7,0.2,1,0.5,1,1c0,0.3-0.1,0.4-0.2,0.8c-0.3,0.8-2.2,5.5-3.2,7.6c-1.2-3-2.8-7.5-3-8.1c-0.1-0.2-0.1-0.3-0.1-0.4
	c0-0.4,0.3-0.8,1-0.9l0.9-0.2v-1L43,6.9l-3-0.1v1L40.5,8c0.7,0.2,0.8,0.3,1.3,1.4c1.9,4.2,4,9.7,4.7,11.4
	C44.9,23.6,43.2,24.4,41.9,24.4L41.9,24.4L41.9,24.4z M5.9,2c0-0.3,0-0.4,0.5-0.4h6.3c1.1,0,1.7,0.9,2.1,2.7l0.4,1.4h1.1
	c0.1-4,0.2-5.7,0.2-5.7s-2.7,0.3-4.3,0.3h-8L0,0.2v1.1l1.4,0.3c1,0.2,1.3,0.4,1.3,1.3c0,0,0.1,2.7,0.1,7.2s-0.1,7.2-0.1,7.2
	c0,0.8-0.3,1.1-1.3,1.3L0,18.9V20l4.3-0.1h7.2c1.6,0,5.4,0.1,5.4,0.1c0.1-1,0.6-5.4,0.7-5.9h-1l-1.1,2.4c-0.8,1.9-2.1,2-3.4,2H7.9
	c-1.4,0-2-0.5-2-1.7v-6.2c0,0,3,0,4,0.1c0.8,0.1,1.2,0.3,1.5,1.3l0.3,1.4h1.2l-0.1-3.6L13,6.3h-1.2l-0.4,1.6C11.2,9,11,9.1,9.9,9.3
	c-1.4,0.1-4,0.1-4,0.1L5.9,2L5.9,2z"/>
</svg>
