HTTP/1.1 200 OK
Server: Apache
Last-Modified: Tue, 01 Aug 2017 16:39:19 GMT
Access-Control-Allow-Origin: *
Cache-Control: max-age=31536000
Content-Type: image/svg+xml
Via: 1.1 google
x-fastly-backend-reqs: 413
Content-Length: 708
Accept-Ranges: bytes
Date: Thu, 06 Dec 2018 05:02:21 GMT
Via: 1.1 varnish
Age: 4144797
Connection: keep-alive
X-Served-By: cache-ewr18140-EWR
X-Cache: HIT
X-Cache-Hits: 732
X-Timer: S1544072541.370392,VS0,VE0
Vary: Accept-Encoding

<svg xmlns="http://www.w3.org/2000/svg" viewBox="0 0 1000 1000" enable-background="new 0 0 1000 1000"><path fill="#FFA300" d="M173.2 397.2c32.6 0 59 26.4 59 59s-26.4 59-59 59-59-26.4-59-59 26.6-59 59-59z"/><path fill="#C13C27" d="M729.2 818.2c17.9 0 32.5 14.6 32.5 32.5s-14.6 32.5-32.5 32.5-32.5-14.6-32.5-32.5 14.6-32.5 32.5-32.5z"/><path fill="#F56400" d="M520.8 116.8c32.6 0 59 26.4 59 59s-26.4 59-59 59-59-26.4-59-59 26.4-59 59-59z"/><path fill="#FFA300" d="M264.8 802.2c17.9 0 32.5 14.6 32.5 32.5s-14.6 32.5-32.5 32.5-32.5-14.6-32.5-32.5 14.5-32.5 32.5-32.5z"/><path fill="#C13C27" d="M853.2 421.2c17.9 0 32.5 14.6 32.5 32.5s-14.6 32.5-32.5 32.5-32.5-14.6-32.5-32.5c.1-17.9 14.6-32.5 32.5-32.5z"/></svg>