HTTP/1.1 200 OK
Server: Apache
Last-Modified: Tue, 28 Feb 2017 15:14:48 GMT
Access-Control-Allow-Origin: *
Cache-Control: max-age=31536000
Content-Type: image/svg+xml
Via: 1.1 google
x-fastly-backend-reqs: 1736
Content-Length: 52440
Accept-Ranges: bytes
Date: Thu, 06 Dec 2018 05:02:20 GMT
Via: 1.1 varnish
Age: 464337
Connection: keep-alive
X-Served-By: cache-ewr18140-EWR
X-Cache: HIT
X-Cache-Hits: 1
X-Timer: S1544072541.818921,VS0,VE2
Vary: Accept-Encoding

<?xml version="1.0" standalone="no"?>
<!DOCTYPE svg PUBLIC "-//W3C//DTD SVG 1.1//EN" "http://www.w3.org/Graphics/SVG/1.1/DTD/svg11.dtd" >
<svg xmlns="http://www.w3.org/2000/svg" xmlns:xlink="http://www.w3.org/1999/xlink" version="1.1">
<metadata></metadata>
<defs>
<font id="ss_etsyregular" horiz-adv-x="2048" >
<font-face units-per-em="2048" ascent="2048" descent="0" />
<missing-glyph horiz-adv-x="512" />
<glyph unicode="ADD" d="M1280 43q0 -18 -12.5 -30.5t-30.5 -12.5h-426q-18 0 -30.5 12.5t-12.5 30.5v725h-725q-18 0 -30.5 12.5t-12.5 30.5v426q0 18 12.5 30.5t30.5 12.5h725v725q0 18 12.5 30.5t30.5 12.5h426q18 0 30.5 -12.5t12.5 -30.5v-725h725q18 0 30.5 -12.5t12.5 -30.5v-426 q0 -18 -12.5 -30.5t-30.5 -12.5h-725v-725z" />
<glyph unicode="HYPHEN" d="M2048 811q0 -18 -12.5 -30.5t-30.5 -12.5h-1962q-18 0 -30.5 12.5t-12.5 30.5v426q0 18 12.5 30.5t30.5 12.5h1962q18 0 30.5 -12.5t12.5 -30.5v-426z" />
<glyph unicode="Pull&#x20;quote" d="M2010 1448q-166 -12 -256 -154.5t-90 -397.5h256q53 0 90.5 -37.5t37.5 -90.5v-512q0 -53 -37.5 -90.5t-90.5 -37.5h-640q-53 0 -90.5 37.5t-37.5 90.5v640q0 222 62 411.5t172.5 324.5t270 211.5t348.5 76.5q18 0 30.5 -12.5t12.5 -30.5v-386q0 -16 -11 -28.5t-27 -14.5 zM858 1448q-166 -12 -256 -154.5t-90 -397.5h256q53 0 90.5 -37.5t37.5 -90.5v-512q0 -53 -37.5 -90.5t-90.5 -37.5h-640q-53 0 -90.5 37.5t-37.5 90.5v640q0 222 62 411.5t172.5 324.5t270 211.5t348.5 76.5q18 0 30.5 -12.5t12.5 -30.5v-386q0 -16 -11 -28.5t-27 -14.5z " />
<glyph unicode="ELLIPSIS" d="M1792 768q-106 0 -181 75t-75 181t75 181t181 75t181 -75t75 -181t-75 -181t-181 -75zM256 768q-106 0 -181 75t-75 181t75 181t181 75t181 -75t75 -181t-75 -181t-181 -75zM1024 768q-106 0 -181 75t-75 181t75 181t181 75t181 -75t75 -181t-75 -181t-181 -75z" />
<glyph unicode="REPLY" d="M1967 405q-112 139 -360.5 208.5t-582.5 69.5v-384q0 -27 -24 -38q-12 -5 -19 -5q-17 0 -26 9l-938 726q-17 12 -17 33t17 33l938 726q21 16 45 4q24 -11 24 -38v-384q474 0 741 -250.5t283 -690.5q0 -31 -33 -40h-10q-15 0 -38 21z" />
<glyph unicode="REDIRECT" d="M1024 683q-334 0 -582.5 -69.5t-360.5 -208.5q-22 -21 -38 -21h-10q-33 9 -33 40q16 440 283 690.5t741 250.5v384q0 27 24 38q24 12 45 -4l938 -726q17 -12 17 -33t-17 -33l-938 -726q-9 -9 -26 -9q-7 0 -19 5q-24 11 -24 38v384z" />
<glyph unicode="TRANSFER" d="M1993 1567q13 -13 13 -31t-13 -31l-384 -384q-16 -18 -47 -9q-26 11 -26 40v213h-1365q-18 0 -30.5 12.5t-12.5 30.5v256q0 18 12.5 30.5t30.5 12.5h1365v213q0 29 26 40q31 9 47 -9zM1877 683q18 0 30.5 -12.5t12.5 -30.5v-256q0 -18 -12.5 -30.5t-30.5 -12.5h-1365 v-213q0 -29 -26 -40q-31 -9 -47 9l-384 384q-13 13 -13 31t13 31l384 384q16 18 47 9q26 -11 26 -40v-213h1365z" />
<glyph unicode="STAR" d="M2046 1254q7 -31 -10 -47l-498 -496l126 -661q3 -27 -19 -43q-10 -7 -24 -7q-13 0 -23 7l-574 370l-574 -370q-24 -15 -47 0q-22 16 -19 43l126 661l-498 496q-17 16 -10 47q11 26 41 26h654l287 740q12 28 40 28t40 -28l287 -740h654q30 0 41 -26z" />
<glyph unicode="PRINTER" d="M1664 1536q53 0 90.5 37.5t37.5 90.5t-37.5 90.5t-90.5 37.5t-90.5 -37.5t-37.5 -90.5t37.5 -90.5t90.5 -37.5zM1920 2048q53 0 90.5 -37.5t37.5 -90.5v-1024q0 -53 -37.5 -90.5t-90.5 -37.5h-213v427h-1366v-427h-213q-53 0 -90.5 37.5t-37.5 90.5v1024q0 53 37.5 90.5 t90.5 37.5h1792zM512 43v981h1024v-981q0 -18 -12.5 -30.5t-30.5 -12.5h-938q-18 0 -30.5 12.5t-12.5 30.5z" />
<glyph unicode="CLOCK" d="M1024 2048q209 0 398.5 -81t326.5 -218t218 -326.5t81 -398.5t-81 -398.5t-218 -326.5t-326.5 -218t-398.5 -81t-398.5 81t-326.5 218t-218 326.5t-81 398.5t81 398.5t218 326.5t326.5 218t398.5 81zM1477 571l121 121l-418 417l-156 683h-171v-768q0 -71 50 -121 q8 -7 29 -24z" />
<glyph unicode="CLOSE" d="M1387 1024l524 -524q11 -14 11 -31q0 -16 -11 -30l-302 -302q-14 -11 -30 -11q-17 0 -31 11l-524 524l-524 -524q-14 -11 -31 -11q-16 0 -30 11l-302 302q-11 14 -11 30q0 17 11 31l524 524l-524 524q-11 14 -11 31q0 16 11 30l302 302q14 11 30 11q17 0 31 -11l524 -524 l524 524q14 11 31 11q16 0 30 -11l302 -302q11 -14 11 -30q0 -17 -11 -31z" />
<glyph unicode="ASCENDING" d="M2039 453q15 -20 4 -45q-11 -24 -38 -24h-1962q-27 0 -38 24q-11 25 4 45l982 1194q10 17 33 17q20 0 33 -17z" />
<glyph unicode="Play" d="M62 5q-12 -5 -19 -5q-14 0 -24 7q-19 11 -19 36v1962q0 25 19 36q20 13 43 2l1962 -981q24 -11 24 -38t-24 -38z" />
<glyph unicode="Direct&#x20;right" d="M408 2043q25 11 45 -4l1194 -982q17 -13 17 -33q0 -23 -17 -33l-1194 -982q-20 -15 -45 -4q-24 11 -24 38v1962q0 27 24 38z" />
<glyph unicode="NAVIGATE&#x20;RIGHT" d="M652 2036q15 12 31 12q15 0 30 -12l982 -981q12 -13 12 -31t-12 -31l-982 -981q-12 -13 -30.5 -13t-30.5 13l-299 299q-12 12 -12 30.5t12 30.5l652 652l-652 652q-12 12 -12 30.5t12 30.5z" />
<glyph unicode="DIRECT&#x20;DOWN" d="M2043 1640q11 -25 -4 -45l-982 -1194q-13 -17 -33 -17q-23 0 -33 17l-982 1194q-15 20 -4 45q11 24 38 24h1962q27 0 38 -24z" />
<glyph unicode="Direct&#x20;left" d="M1595 2039q20 15 45 4q24 -11 24 -38v-1962q0 -27 -24 -38q-25 -11 -45 4l-1194 982q-17 10 -17 33q0 20 17 33z" />
<glyph unicode="NAVIGATE&#x20;LEFT" d="M1396 12q-15 -12 -31 -12q-15 0 -30 12l-982 981q-12 13 -12 31t12 31l982 981q12 13 30.5 13t30.5 -13l299 -299q12 -12 12 -30.5t-12 -30.5l-654 -652l654 -652q12 -12 12 -30.5t-12 -30.5z" />
<glyph unicode="RECORD" d="M1024 2048q209 0 398.5 -81t326.5 -218t218 -326.5t81 -398.5t-81 -398.5t-218 -326.5t-326.5 -218t-398.5 -81t-398.5 81t-326.5 218t-218 326.5t-81 398.5t81 398.5t218 326.5t326.5 218t398.5 81z" />
<glyph unicode="FAVORITE&#x20;EMPTY" d="M1085 77q-28 -19 -61 -19t-61 19q-250 174 -458 374q-207 199 -333 397q-172 270 -172 509q0 228 160 396q78 82 177.5 125.5t207.5 43.5q216 0 372 -147q58 -55 107 -133q49 78 107 133q156 147 372 147q108 0 207.5 -43.5t177.5 -125.5q160 -168 160 -396 q0 -239 -172 -509q-126 -198 -333 -397q-208 -200 -458 -374zM770 1620q-93 89 -225 89q-131 0 -231 -103q-101 -106 -101 -249q0 -176 139 -394q111 -174 302 -359q166 -160 370 -309q204 149 370 309q191 185 302 359q139 218 139 394q0 143 -101 249q-100 103 -231 103 q-132 0 -225 -89q-98 -92 -152 -273q-10 -34 -38.5 -55t-63.5 -21t-63.5 21t-38.5 55q-54 181 -152 273z" />
<glyph unicode="FAVORITE" d="M1097 78q-32 -22 -73 -22t-73 22q-254 179 -450 368q-206 200 -329 392q-172 270 -172 510q0 156 73 289t198 210t272 77q157 0 278 -86t191 -248l12 -26l12 27q71 161 191.5 247t277.5 86q147 0 272 -77t198 -210t73 -289q0 -240 -172 -510q-123 -192 -329 -392 q-196 -189 -450 -368z" />
<glyph unicode="FLAG" d="M1773 1927q19 -11 19 -35v-930q0 -22 -24 -38q-135 -71 -296 -71q-65 0 -148.5 14t-142.5 29t-157 43q-99 27 -158 42t-142.5 29t-147.5 14q-10 0 -32 -1t-32 -1v-979q0 -18 -12.5 -30.5t-30.5 -12.5h-170q-18 0 -30.5 12.5t-12.5 30.5v1896q0 22 21 36q136 73 299 73 q64 0 147.5 -14t142.5 -29t158 -42q98 -28 157 -43t142.5 -29t148.5 -14q140 0 261 55q23 9 40 -5z" />
<glyph unicode="COG" d="M1024 640q159 0 271.5 112.5t112.5 271.5q0 158 -113 271t-271 113q-159 0 -271.5 -112.5t-112.5 -271.5q0 -160 112 -272t272 -112zM1783 905l196 -170q24 -17 12 -45q-60 -184 -194 -337q-20 -23 -45 -12l-247 86q-91 -75 -204 -119l-49 -256q-2 -12 -12 -22t-22 -11 q-101 -19 -194 -19t-194 19q-12 1 -22 11t-12 22l-49 256q-118 46 -204 119l-247 -86q-25 -11 -45 12q-134 153 -194 337q-12 28 12 45l196 170q-9 49 -9 119t9 119l-196 170q-24 17 -12 45q60 184 194 337q20 23 45 12l247 -86q86 73 204 119l49 256q2 12 12 22t22 11 q194 39 388 0q12 -1 22 -11t12 -22l49 -256q113 -44 204 -119l247 86q25 11 45 -12q134 -153 194 -337q12 -28 -12 -45l-196 -170q9 -49 9 -119t-9 -119z" />
<glyph unicode="EDIT" d="M2010 1809q38 -40 38 -92.5t-38 -90.5l-218 -218l-384 384l218 218q38 38 90.5 38t92.5 -38zM1280 1664l384 -384l-1055 -1055q-6 -6 -14 -9l-536 -214q-7 -2 -16 -2q-16 0 -31 12q-17 17 -10 47l214 536q3 8 9 14z" />
<glyph unicode="CHECKMARK" d="M2036 1524q13 -12 13 -30.5t-13 -30.5l-1237 -1238q-17 -12 -31 -12t-31 12l-725 726q-13 12 -13 30.5t13 30.5l299 299q12 12 30.5 12t30.5 -12l396 -398l908 910q12 12 30.5 12t30.5 -12z" />
<glyph unicode="HELP" d="M1024 2048q208 0 397.5 -81t327 -218.5t218.5 -327t81 -397.5t-81 -397.5t-218.5 -327t-327 -218.5t-397.5 -81t-397.5 81t-327 218.5t-218.5 327t-81 397.5t81 397.5t218.5 327t327 218.5t397.5 81zM1265 922q39 32 62 52t59 60t56 77.5t35.5 93.5t15.5 118 q0 176 -137.5 301t-331.5 125t-331.5 -125t-137.5 -301h256q0 71 62.5 120.5t150.5 49.5t150.5 -49.5t62.5 -120.5q0 -33 -7.5 -58.5t-27 -50.5t-39.5 -43.5t-59 -49.5q-36 -29 -56.5 -47t-53.5 -54t-51 -69t-32.5 -81.5t-14.5 -101.5h256q0 41 23 70t90 84zM1024 256 q71 0 121 50t50 121q0 70 -50 120t-121 50t-121 -50t-50 -120q0 -71 50 -121t121 -50z" />
<glyph unicode="EXPAND" d="M2005 2048q18 0 30.5 -12.5t12.5 -30.5v-938q0 -30 -26 -41q-5 -2 -17 -2q-15 0 -30 12l-287 289l-363 -363q-11 -11 -28 -11q-20 0 -31 11l-304 304q-12 12 -12 29t12 30l363 363l-289 287q-17 16 -10 47q11 26 41 26h938zM43 0q-18 0 -30.5 12.5t-12.5 30.5v938 q0 30 26 41q31 7 47 -10l287 -289l363 360q13 13 30 13t29 -13l301 -301q14 -10 14 -31q0 -18 -14 -28l-360 -363l287 -287q14 -11 14 -30q0 -18 -12.5 -30.5t-30.5 -12.5h-938z" />
<glyph unicode="ZOOM&#x20;IN" d="M768 2048q209 0 385.5 -103t279.5 -279.5t103 -385.5t-103 -385.5t-279.5 -279.5t-385.5 -103t-385.5 103t-279.5 279.5t-103 385.5t103 385.5t279.5 279.5t385.5 103zM1237 1152v256h-341v341h-256v-341h-341v-256h341v-341h256v341h341zM2036 254q12 -13 12 -30.5 t-12 -29.5l-182 -182q-12 -12 -29.5 -12t-30.5 12l-463 464q142 99 241 241z" />
<glyph unicode="MOVE" d="M2036 1055q13 -13 13 -31t-13 -31l-384 -384q-15 -12 -31 -12q-12 0 -16 3q-26 11 -26 40v213h-384v-384h213q29 0 40 -26q9 -29 -9 -47l-384 -384q-17 -12 -31 -12t-31 12l-384 384q-18 18 -9 47q11 26 40 26h213v384h-384v-213q0 -29 -26 -40q-4 -3 -16 -3 q-16 0 -31 12l-384 384q-13 13 -13 31t13 31l384 384q18 18 47 9q26 -11 26 -40v-213h384v384h-213q-29 0 -40 26q-9 29 9 47l384 384q13 13 31 13t31 -13l384 -384q18 -18 9 -47q-11 -26 -40 -26h-213v-384h384v213q0 29 26 40q29 9 47 -9z" />
<glyph unicode="TRASHCAN" d="M128 2048h1792q18 0 30.5 -12.5t12.5 -30.5v-170q0 -18 -12.5 -30.5t-30.5 -12.5h-1792q-18 0 -30.5 12.5t-12.5 30.5v170q0 18 12.5 30.5t30.5 12.5zM384 38l-128 1583h1536l-128 -1583q-2 -16 -14.5 -27t-28.5 -11h-1194q-16 0 -28.5 11t-14.5 27z" />
<glyph unicode="HALF&#x20;STAR" horiz-adv-x="1024" d="M1024 2048v-1671l-574 -370q-24 -15 -47 0q-22 16 -19 43l126 661l-498 496q-17 16 -10 47q11 26 41 26h654l287 740q12 28 40 28z" />
<glyph unicode="FOLLOW&#x20;USER" d="M1024 2048q212 0 362 -150t150 -362q0 -129 -26 -251t-59 -199.5t-76 -146t-62.5 -92t-32.5 -36.5q-106 0 -181 -75t-75 -181v-214q0 -106 75 -181t181 -75h128v-85h-1365q-18 0 -30.5 12.5t-12.5 30.5v85q0 87 42.5 154t110 109t149.5 76.5t164 66t149.5 66.5t110 88.5 t42.5 122.5q-10 10 -27.5 30.5t-61.5 90t-78 147t-61.5 202t-27.5 255.5q0 212 150 362t362 150zM2261 597q18 0 30.5 -12.5t12.5 -29.5v-214q0 -17 -12.5 -29.5t-30.5 -12.5h-341v-342q0 -17 -12.5 -29.5t-30.5 -12.5h-213q-17 0 -30 12.5t-13 29.5v342h-341 q-17 0 -30 12.5t-13 29.5v214q0 17 13 29.5t30 12.5h341v342q0 17 13 29.5t30 12.5h213q18 0 30.5 -12.5t12.5 -29.5v-342h341z" />
<glyph unicode="FOLLOWING&#x20;USER" d="M1056 589q-75 -75 -75 -181t75 -181l227 -227h-1240q-18 0 -30.5 12.5t-12.5 30.5v85q0 87 42.5 154t110 109t149.5 76.5t164 66t149.5 66.5t110 88.5t42.5 122.5q-10 10 -27.5 30.5t-61.5 90t-78 147t-61.5 202t-27.5 255.5q0 212 150 362t362 150t362 -150t150 -362 q0 -96 -14 -187.5t-36.5 -161.5t-50 -132.5t-55 -106t-50 -75.5t-36.5 -47l-14 -15zM2384 710q12 -13 12 -30.5t-12 -30.5l-694 -693q-13 -13 -30.5 -13t-30.5 13l-422 422q-12 13 -12 30.5t12 29.5l151 151q13 13 30.5 13t29.5 -13l242 -241l513 513q12 12 29.5 12 t30.5 -12z" />
<glyph unicode="USER&#x20;PROFILE" d="M1792 1792q106 0 181 -75t75 -181v-1024q0 -106 -75 -181t-181 -75h-1536q-106 0 -181 75t-75 181v1024q0 106 75 181t181 75h1536zM1835 512v1024q0 18 -12.5 30.5t-30.5 12.5h-1536q-18 0 -30.5 -12.5t-12.5 -30.5v-1024q0 -18 12.5 -30.5t30.5 -12.5h1536 q18 0 30.5 12.5t12.5 30.5zM778 932q90 -13 146.5 -46t56.5 -75q0 -18 -12.5 -30.5t-29.5 -12.5h-512q-18 0 -30.5 12.5t-12.5 30.5q0 42 57 75t147 46q-76 63 -76 177q0 89 50 151.5t121 62.5q70 0 120 -62.5t50 -151.5q0 -54 -20.5 -101t-54.5 -76zM1664 1237v-85 q0 -18 -12.5 -30.5t-30.5 -12.5h-426q-18 0 -30.5 12.5t-12.5 30.5v85q0 18 12.5 30.5t30.5 12.5h426q18 0 30.5 -12.5t12.5 -30.5zM1664 896v-85q0 -18 -12.5 -30.5t-30.5 -12.5h-426q-18 0 -30.5 12.5t-12.5 30.5v85q0 18 12.5 30.5t30.5 12.5h426q18 0 30.5 -12.5 t12.5 -30.5z" />
<glyph unicode="CART" d="M607 555h-10q-45 0 -80.5 28.5t-44.5 73.5l-235 1135h-109q-53 0 -90.5 37.5t-37.5 90.5t37.5 90.5t90.5 37.5h213q46 0 81 -29t45 -73l85 -410h1368q65 0 104 -53q37 -53 17 -116l-213 -640q-12 -36 -42.5 -60t-69.5 -27zM1536 427q88 0 150.5 -62.5t62.5 -151.5 q0 -88 -62.5 -150.5t-150.5 -62.5t-150.5 62.5t-62.5 150.5q0 89 62.5 151.5t150.5 62.5zM640 427q88 0 150.5 -62.5t62.5 -151.5q0 -88 -62.5 -150.5t-150.5 -62.5t-150.5 62.5t-62.5 150.5q0 89 62.5 151.5t150.5 62.5z" />
<glyph unicode="CART&#x20;EMPTY" d="M607 555h-10q-45 0 -80.5 28.5t-44.5 73.5l-235 1135h-109q-53 0 -90.5 37.5t-37.5 90.5t37.5 90.5t90.5 37.5h213q46 0 81 -29t45 -73l85 -410h1368q65 0 104 -53q37 -53 17 -116l-213 -640q-12 -36 -42.5 -60t-69.5 -27zM1742 1280h-1138l96 -461l912 70zM1536 427 q88 0 150.5 -62.5t62.5 -151.5t-62.5 -151t-150.5 -62t-150.5 62t-62.5 151t62.5 151.5t150.5 62.5zM640 427q88 0 150.5 -62.5t62.5 -151.5t-62.5 -151t-150.5 -62t-150.5 62t-62.5 151t62.5 151.5t150.5 62.5z" />
<glyph unicode="ACTIVITY" d="M2131 991q8 -15 3 -32t-21 -25l-226 -121q-15 -8 -32 -3t-25 21l-223 418l-329 -889q-14 -35 -44.5 -58t-68.5 -25h-7q-36 0 -67.5 19t-47.5 52l-275 550l-115 -230q-17 -32 -47.5 -51.5t-67.5 -19.5h-495q-18 0 -30.5 12.5t-12.5 30.5v256q0 18 12.5 30.5t30.5 12.5h364 l247 494q16 32 46.5 51t67.5 19t67.5 -19t46.5 -51l247 -493l323 872q13 36 43 58.5t68 25.5q37 2 70.5 -16.5t50.5 -51.5z" />
<glyph unicode="DELIVERY" d="M1408 1152h395l-211 469h-184v-469zM2031 1063q17 -42 17 -82v-384q0 -53 -38 -90.5t-90 -37.5h-52q-30 130 -134.5 214.5t-240.5 84.5q-135 0 -239.5 -85t-134.5 -214h-190q-30 129 -134.5 214t-239.5 85q-136 0 -240.5 -84.5t-134.5 -214.5h-52q-52 0 -90 37.5 t-38 90.5v256h85q36 0 61 25t25 61q0 35 -25 60t-61 25h-128q-35 0 -60 25t-25 60q0 36 25 61t60 25h214q35 0 60 25t25 60t-25 60t-60 25h-299q-35 0 -60 25t-25 61q0 35 25 60t60 25h128v213q0 53 37.5 90.5t90.5 37.5h1408q53 0 106 -34t74 -82zM1493 597 q89 0 151.5 -62.5t62.5 -150.5t-62.5 -150.5t-151.5 -62.5t-151 62.5t-62 150.5t62 150.5t151 62.5zM555 597q88 0 150.5 -62.5t62.5 -150.5t-62.5 -150.5t-150.5 -62.5q-89 0 -151.5 62.5t-62.5 150.5t62.5 150.5t151.5 62.5z" />
<glyph unicode="LOCATION" d="M1024 2048q185 0 342.5 -91.5t249 -249t91.5 -342.5q0 -176 -88 -334l-557 -1010q-12 -21 -38 -21t-38 21l-557 1010q-88 150 -88 334q0 185 91.5 342.5t249 249t342.5 91.5zM1024 1109q106 0 181 74.5t75 181.5t-74.5 181.5t-181.5 74.5t-181.5 -74.5t-74.5 -181.5 t75 -181.5t181 -74.5z" />
<glyph unicode="GRID" d="M1536 1579v426q0 18 12.5 30.5t30.5 12.5h426q18 0 30.5 -12.5t12.5 -30.5v-426q0 -18 -12.5 -30.5t-30.5 -12.5h-426q-18 0 -30.5 12.5t-12.5 30.5zM0 1579v426q0 18 12.5 30.5t30.5 12.5h426q18 0 30.5 -12.5t12.5 -30.5v-426q0 -18 -12.5 -30.5t-30.5 -12.5h-426 q-18 0 -30.5 12.5t-12.5 30.5zM768 1579v426q0 18 12.5 30.5t30.5 12.5h426q18 0 30.5 -12.5t12.5 -30.5v-426q0 -18 -12.5 -30.5t-30.5 -12.5h-426q-18 0 -30.5 12.5t-12.5 30.5zM768 811v426q0 18 12.5 30.5t30.5 12.5h426q18 0 30.5 -12.5t12.5 -30.5v-426 q0 -18 -12.5 -30.5t-30.5 -12.5h-426q-18 0 -30.5 12.5t-12.5 30.5zM0 811v426q0 18 12.5 30.5t30.5 12.5h426q18 0 30.5 -12.5t12.5 -30.5v-426q0 -18 -12.5 -30.5t-30.5 -12.5h-426q-18 0 -30.5 12.5t-12.5 30.5zM1536 811v426q0 18 12.5 30.5t30.5 12.5h426 q18 0 30.5 -12.5t12.5 -30.5v-426q0 -18 -12.5 -30.5t-30.5 -12.5h-426q-18 0 -30.5 12.5t-12.5 30.5zM0 43v426q0 18 12.5 30.5t30.5 12.5h426q18 0 30.5 -12.5t12.5 -30.5v-426q0 -18 -12.5 -30.5t-30.5 -12.5h-426q-18 0 -30.5 12.5t-12.5 30.5zM768 43v426 q0 18 12.5 30.5t30.5 12.5h426q18 0 30.5 -12.5t12.5 -30.5v-426q0 -18 -12.5 -30.5t-30.5 -12.5h-426q-18 0 -30.5 12.5t-12.5 30.5zM1536 43v426q0 18 12.5 30.5t30.5 12.5h426q18 0 30.5 -12.5t12.5 -30.5v-426q0 -18 -12.5 -30.5t-30.5 -12.5h-426q-18 0 -30.5 12.5 t-12.5 30.5z" />
<glyph unicode="ROWS" d="M2005 2048q18 0 30.5 -12.5t12.5 -30.5v-426q0 -18 -12.5 -30.5t-30.5 -12.5h-1962q-18 0 -30.5 12.5t-12.5 30.5v426q0 18 12.5 30.5t30.5 12.5h1962zM2005 1280q18 0 30.5 -12.5t12.5 -30.5v-426q0 -18 -12.5 -30.5t-30.5 -12.5h-1962q-18 0 -30.5 12.5t-12.5 30.5v426 q0 18 12.5 30.5t30.5 12.5h1962zM2005 512q18 0 30.5 -12.5t12.5 -30.5v-426q0 -18 -12.5 -30.5t-30.5 -12.5h-1962q-18 0 -30.5 12.5t-12.5 30.5v426q0 18 12.5 30.5t30.5 12.5h1962z" />
<glyph unicode="Thumbnails" d="M2048 1195q0 -18 -12.5 -30.5t-30.5 -12.5h-810q-18 0 -30.5 12.5t-12.5 30.5v810q0 18 12.5 30.5t30.5 12.5h810q18 0 30.5 -12.5t12.5 -30.5v-810zM896 1195q0 -18 -12.5 -30.5t-30.5 -12.5h-810q-18 0 -30.5 12.5t-12.5 30.5v810q0 18 12.5 30.5t30.5 12.5h810 q18 0 30.5 -12.5t12.5 -30.5v-810zM896 43q0 -18 -12.5 -30.5t-30.5 -12.5h-810q-18 0 -30.5 12.5t-12.5 30.5v810q0 18 12.5 30.5t30.5 12.5h810q18 0 30.5 -12.5t12.5 -30.5v-810zM2048 43q0 -18 -12.5 -30.5t-30.5 -12.5h-810q-18 0 -30.5 12.5t-12.5 30.5v810 q0 18 12.5 30.5t30.5 12.5h810q18 0 30.5 -12.5t12.5 -30.5v-810z" />
<glyph unicode="DOWNLOAD&#x20;CLOUD" d="M1655 1266q170 -39 281.5 -178.5t111.5 -319.5q0 -104 -40.5 -198.5t-109.5 -163.5t-163.5 -109.5t-198.5 -40.5h-431l440 439q19 17 10 47q-11 26 -40 26h-320v431h-342v-431h-320q-29 0 -40 -26q-9 -30 10 -47l440 -439h-495q-185 0 -316.5 131.5t-131.5 316.5 q0 168 110 294t274 149v5q0 130 51 248.5t136.5 204t204 136.5t248.5 51q234 0 411.5 -150t219.5 -376z" />
<glyph unicode="IMPORT&#x20;FILE" d="M1792 1920q52 0 90 -38t38 -90v-1536q0 -52 -38 -90t-90 -38h-1536q-52 0 -90 38t-38 90v1365l747 -746l-290 -290q-20 -20 -10 -47q11 -26 40 -26h921v921q0 29 -26 40q-27 10 -47 -10l-290 -290l-746 747h1365z" />
<glyph unicode="LIST" d="M171 1835q70 0 120 -50t50 -121t-50 -121t-120 -50q-71 0 -121 50t-50 121t50 121t121 50zM2048 1749v-170q0 -18 -12.5 -30.5t-30.5 -12.5h-1322q-18 0 -30.5 12.5t-12.5 30.5v170q0 18 12.5 30.5t30.5 12.5h1322q18 0 30.5 -12.5t12.5 -30.5zM171 1195q70 0 120 -50 t50 -121t-50 -121t-120 -50q-71 0 -121 50t-50 121t50 121t121 50zM2048 1109v-170q0 -18 -12.5 -30.5t-30.5 -12.5h-1322q-18 0 -30.5 12.5t-12.5 30.5v170q0 18 12.5 30.5t30.5 12.5h1322q18 0 30.5 -12.5t12.5 -30.5zM171 555q70 0 120 -50t50 -121t-50 -121t-120 -50 q-71 0 -121 50t-50 121t50 121t121 50zM2048 469v-170q0 -18 -12.5 -30.5t-30.5 -12.5h-1322q-18 0 -30.5 12.5t-12.5 30.5v170q0 18 12.5 30.5t30.5 12.5h1322q18 0 30.5 -12.5t12.5 -30.5z" />
<glyph unicode="ACTION" d="M2029 1273q19 -16 19 -36q0 -24 -19 -35l-811 -555q-10 -7 -23 -7q-12 0 -19 5q-24 11 -24 38v301q-138 -3 -254 -23.5t-180.5 -43t-117.5 -54.5t-67 -45t-26 -27l-2 -2q-11 -21 -36 -21h-9q-30 8 -33 40q0 289 170 467q192 205 555 216v301q0 27 24 38q23 13 42 -2z M1408 569l256 175v-275q0 -105 -75.5 -180.5t-180.5 -75.5h-1152q-105 0 -180.5 75.5t-75.5 180.5v1024q0 105 75.5 180.5t180.5 75.5h725v-104q-233 -36 -393 -152h-332v-1024h1152v100z" />
<glyph unicode="CONTRACT" d="M1067 1024q-18 0 -30.5 12.5t-12.5 30.5v938q0 30 26 41q31 7 47 -10l287 -289l289 289q13 13 30 13t30 -13l303 -303q13 -13 13 -30t-13 -30l-289 -289l287 -287q14 -11 14 -30q0 -18 -12.5 -30.5t-30.5 -12.5h-938zM375 12q-13 -13 -30 -13t-30 13l-303 303 q-13 13 -13 30t13 30l289 289l-287 287q-14 11 -14 30q0 18 12.5 30.5t30.5 12.5h938q18 0 30.5 -12.5t12.5 -30.5v-938q0 -30 -26 -41q-31 -7 -47 10l-287 289z" />
<glyph unicode="Navigate&#x20;up" d="M12 652q-12 15 -12 31q0 15 12 30l981 982q13 12 31 12t31 -12l981 -982q13 -12 13 -30.5t-13 -30.5l-299 -299q-12 -12 -30.5 -12t-30.5 12l-652 652l-652 -652q-12 -12 -30.5 -12t-30.5 12z" />
<glyph unicode="NAVIGATE&#x20;DOWN" d="M2036 1396q12 -15 12 -31q0 -15 -12 -30l-981 -982q-13 -12 -31 -12t-31 12l-981 982q-13 12 -13 30.5t13 30.5l299 299q12 12 30.5 12t30.5 -12l652 -654l652 654q12 12 30.5 12t30.5 -12z" />
<glyph unicode="Share" d="M1664 768q159 0 271.5 -112.5t112.5 -271.5t-112.5 -271.5t-271.5 -112.5t-271.5 112.5t-112.5 271.5q0 24 3 47l-632 317q-111 -108 -267 -108q-159 0 -271.5 112.5t-112.5 271.5t112.5 271.5t271.5 112.5q156 0 267 -108l632 317q-3 22 -3 47q0 159 112.5 271.5 t271.5 112.5t271.5 -112.5t112.5 -271.5t-112.5 -271.5t-271.5 -112.5q-156 0 -267 108l-632 -316q3 -24 3 -48t-3 -48l632 -316q111 108 267 108z" />
<glyph unicode="FACEBOOK" d="M1920 2048q52 0 90 -38t38 -90v-1792q0 -52 -38 -90t-90 -38h-512v796h256l43 295h-299v232q0 64 32.5 98t95.5 34h192v266q-86 14 -210 14q-206 0 -314.5 -104.5t-108.5 -284.5v-255h-256v-295h256v-796h-967q-52 0 -90 38t-38 90v1792q0 52 38 90t90 38h1792z" />
<glyph unicode="TWITTER" d="M2048 1681q-84 -127 -209 -218v-55q0 -140 -35.5 -281.5t-102 -275t-170.5 -249.5t-233 -202.5t-297.5 -136.5t-355.5 -50q-379 0 -645 171q46 -7 100 -7q140 0 274 54t247 145q-135 1 -243.5 83.5t-147.5 208.5q42 -8 78 -8q58 0 112 15q-145 29 -241 144.5t-96 267.5v5 q90 -49 190 -52q-87 58 -137.5 150t-50.5 198q0 103 57 204q158 -192 382 -304.5t483 -126.5q-9 39 -9 97q0 174 122.5 296.5t296.5 122.5q179 0 309 -132q143 29 265 102q-48 -152 -185 -233q125 14 242 67z" />
<glyph unicode="TUMBLR" d="M1664 111q-7 -5 -20.5 -12t-59 -26.5t-96 -34t-130.5 -26.5t-163 -12q-285 0 -420 127t-135 385v640h-299v299q82 27 143.5 58t119.5 78.5t97.5 109t68 150t41.5 201.5h298v-512h470v-384h-470v-512q0 -85 10 -137.5t38 -91t78 -54.5t130 -16q57 0 131.5 21.5t121.5 43.5 l46 21v-316z" />
<glyph unicode="YOUTUBE" d="M1024 1749q464 0 610 -13q211 -18 296 -85q79 -62 102 -205q16 -102 16 -392v-30q0 -301 -13 -401q-21 -152 -95 -217q-79 -71 -278 -91q-148 -16 -596 -16h-1h-1h-1h-1h-1h-1h-1h-1h-1h-1h-1h-1h-1h-1h-1h-1h-1h-1h-1h-1h-1h-1h-1h-1h-1h-1h-1h-1h-1h-1h-1h-1h-1h-9 q-464 0 -610 13q-211 18 -296 85q-79 62 -102 205q-16 102 -16 392v30q0 301 13 401q21 152 95 217q79 71 278 91q148 16 596 16h1h1h1h1h1h1h1h1h1h1h1h1h1h1h1h1h1h1h1h1h1h1h1h1h1h1h1h1h1h1h1h1h1h9zM768 640l640 384l-640 384v-768z" />
<glyph unicode="VIMEO" d="M1451 1323q0 66 -28.5 109t-85.5 52t-142 -33q24 98 74 179.5t109 133.5t127 88.5t129 52t115 15.5q130 0 214.5 -95.5t84.5 -250.5q0 -132 -61.5 -297.5t-159 -322.5t-219.5 -309t-242 -265t-228.5 -182.5t-175.5 -69.5q-49 0 -93 15.5t-76 38t-61.5 58.5t-48 66.5 t-37.5 74t-28 69t-21 62.5l-256 811q-18 55 -43.5 75t-77 4t-135.5 -79l-85 104q8 10 22.5 28t59.5 69t90 97.5t108.5 103.5t121 98t122 69t116.5 28q47 0 85 -17.5t64.5 -45t48.5 -71t35 -84t24 -97.5t16.5 -98t13 -98t12.5 -86q15 -95 31.5 -180t40.5 -176t53.5 -145 t59.5 -54q41 0 120 102t143 237t64 216z" />
<glyph unicode="INSTAGRAM" d="M1749 2048q124 0 211.5 -87.5t87.5 -211.5v-1450q0 -124 -87.5 -211.5t-211.5 -87.5h-1450q-124 0 -211.5 87.5t-87.5 211.5v1450q0 124 87.5 211.5t211.5 87.5h1450zM1835 1536v256q0 18 -12.5 30.5t-30.5 12.5h-256q-18 0 -30.5 -12.5t-12.5 -30.5v-256 q0 -18 12.5 -30.5t30.5 -12.5h256q18 0 30.5 12.5t12.5 30.5zM1024 1408q-159 0 -271.5 -112.5t-112.5 -271.5t112.5 -271.5t271.5 -112.5t271.5 112.5t112.5 271.5t-112.5 271.5t-271.5 112.5zM1835 256v896h-227q13 -59 13 -128q0 -162 -80 -299.5t-217.5 -217.5 t-299.5 -80t-299.5 80t-217.5 217.5t-80 299.5q0 69 13 128h-227v-896q0 -18 12.5 -30.5t30.5 -12.5h1536q18 0 30.5 12.5t12.5 30.5z" />
<glyph unicode="PINTEREST" d="M1071 2048q164 0 305.5 -56t236.5 -149.5t149 -215.5t54 -252q0 -229 -79 -412.5t-224 -288.5t-330 -105q-94 0 -175.5 42t-113.5 102q-67 -270 -83 -322q-22 -83 -75.5 -179t-85.5 -140t-50 -65q-8 -9 -17.5 -6.5t-11.5 11.5q0 1 -3.5 28t-6.5 56.5t-5 77t-1.5 91.5 t5.5 97t16 98l149 640q-35 76 -35 187q0 131 65 217.5t160 86.5q77 0 118 -49.5t41 -126.5q0 -47 -17.5 -115t-46 -158.5t-41.5 -143.5q-21 -93 36.5 -160.5t151.5 -67.5q109 0 194.5 86t131.5 228t46 312q0 200 -129 325.5t-359 125.5q-130 0 -241 -46t-184.5 -124 t-114.5 -179.5t-41 -212.5q0 -138 78 -233q16 -20 19 -31t-2 -33q-3 -16 -24 -94q-5 -23 -21 -31t-38 0q-118 50 -179 171t-61 279q0 102 33 204.5t102 198.5t166 169.5t236.5 118t301.5 44.5z" />
<glyph unicode="ETSY&#x20;E" d="M751 1902q-37 0 -45 -8t-8 -34v-769q271 0 416 11q88 15 114.5 38.5t41.5 106.5l42 167h124l-21 -365l11 -374h-125l-31 146q-22 74 -55.5 100.5t-100.5 34.5q-46 5 -150 7.5t-185 2.5l-81 1v-645q0 -93 49.5 -135t158.5 -42h437q40 0 68 2t64.5 8t64.5 20t57.5 36 t54.5 58t45 84l113 250h105q-7 -35 -35.5 -276t-37.5 -337q-395 10 -561 10h-749l-447 -10v113l145 32q79 16 107.5 44.5t28.5 90.5q11 282 11 749q0 208 -2.5 395t-5.5 270l-3 83q0 68 -27.5 93.5t-108.5 41.5l-145 31v114l437 -9h832q74 0 185.5 7.5t186.5 14.5l74 8 q-10 -177 -21 -592h-114l-42 146q-32 144 -83 212t-135 68h-654z" />
<glyph unicode="GOOGLE" d="M1105 2048h571l-116 -116h-154q182 -155 182 -356q0 -56 -13 -106t-30 -84.5t-46 -69t-49 -53.5t-50 -44q-3 -3 -32 -26.5t-42 -36.5q-46 -54 -46 -108q0 -33 16.5 -61t64.5 -65q183 -136 253 -230.5t70 -226.5q0 -79 -29 -154.5t-89 -142.5t-144.5 -118t-204 -80.5 t-258.5 -29.5q-146 0 -262 33.5t-187.5 90t-108.5 126.5t-37 147q0 89 42.5 167t128.5 143.5t231.5 108.5t337.5 55q-45 51 -63.5 88t-18.5 89q0 22 5 47.5t11 39.5l5 14h-77q-89 0 -165 26t-128.5 70t-90 101t-55 119.5t-17.5 125.5q0 103 39.5 196t112.5 165t188 114 t255 42zM1101 1170q31 0 63.5 8t69.5 28t65.5 50.5t47.5 81.5t19 114q0 139 -56.5 257t-121.5 176q-91 76 -190 76q-106 0 -177 -77t-71 -214q0 -150 61 -276t144 -179q65 -45 146 -45zM1097 61q184 0 295 85t111 213q0 84 -43.5 143.5t-140.5 135.5l-118 87q-21 2 -50 2 q-143 0 -250.5 -26.5t-169 -73t-91 -104t-29.5 -125.5q0 -102 64 -179.5t174 -117.5t248 -40z" />
<glyph unicode="CUSTOMIZE" d="M512 2048q52 0 90 -38t38 -90v-341h-512v341q0 52 38 90t90 38h256zM1920 1579h-384v-171h384v-299h-384v-170h384v-299h-384v-171h384v-341q0 -52 -38 -90t-90 -38h-517q-53 0 -90.5 38t-37.5 90v1792q0 52 37.5 90t90.5 38h517q52 0 90 -38t38 -90v-341zM128 469v939 h512v-939q0 -11 -4 -18l-214 -470q-3 -6 -8 -11q-13 -13 -30 -13q-26 0 -38 24l-214 470q-4 7 -4 18z" />
<glyph unicode="FOLLOW&#x20;SHOP" d="M2014 1536q34 -59 34 -128q0 -106 -75 -181t-181 -75t-181 75t-75 181q0 -106 -75 -181t-181 -75t-181 75t-75 181q0 -106 -75 -181t-181 -75t-181 75t-75 181q0 -106 -75 -181t-181 -75t-181 75t-75 181q0 69 34 128l238 445q17 31 47 49t65 18h1280q35 0 65 -18t47 -49 zM1280 85h128v-85h-1152q-52 0 -90 38t-38 90v853h256v-384h644q-4 -19 -4 -42v-214q0 -106 75 -181t181 -75zM2261 597q18 0 30.5 -12.5t12.5 -29.5v-214q0 -17 -12.5 -29.5t-30.5 -12.5h-341v-342q0 -17 -12.5 -29.5t-30.5 -12.5h-213q-17 0 -30 12.5t-13 29.5v342h-341 q-17 0 -30 12.5t-13 29.5v214q0 17 13 29.5t30 12.5h341v342q0 17 13 29.5t30 12.5h213q18 0 30.5 -12.5t12.5 -29.5v-342h341z" />
<glyph unicode="FOLLOWING&#x20;SHOP" d="M2014 1536q34 -59 34 -128q0 -106 -75 -181t-181 -75t-181 75t-75 181q0 -106 -75 -181t-181 -75t-181 75t-75 181q0 -106 -75 -181t-181 -75t-181 75t-75 181q0 -106 -75 -181t-181 -75t-181 75t-75 181q0 69 34 128l238 445q17 31 47 49t65 18h1280q35 0 65 -18t47 -49 zM1664 981h256v-100l-256 -256v356zM1056 561q-75 -75 -75 -181.5t75 -180.5l199 -199h-999q-52 0 -90 38t-38 90v853h256v-384h709zM2384 681q12 -12 12 -29.5t-12 -30.5l-694 -694q-13 -12 -30.5 -12t-30.5 12l-422 422q-12 13 -12 30.5t12 30.5l151 151q13 12 30.5 12 t29.5 -12l242 -242l513 513q12 13 29.5 13t30.5 -13z" />
<glyph unicode="GIFTCARD" d="M1920 1792q53 0 90.5 -37.5t37.5 -90.5v-533h-779q181 61 355 234q12 13 11 29.5t-14 28.5l-198 198q-12 13 -28.5 14t-29.5 -11q-173 -174 -234 -355v523h789zM625 1621l-198 -198q-13 -12 -14 -28.5t11 -29.5q174 -173 355 -234h-779v533q0 53 37.5 90.5t90.5 37.5h789 v-523q-61 181 -234 355q-13 12 -29.5 11t-28.5 -14zM0 917h917v-661h-789q-53 0 -90.5 37.5t-37.5 90.5v533zM1131 917h917v-533q0 -53 -37.5 -90.5t-90.5 -37.5h-789v661z" />
<glyph unicode="LIST&#x20;CHECK" d="M2005 1792q18 0 30.5 -12.5t12.5 -30.5v-170q0 -18 -12.5 -30.5t-30.5 -12.5h-556q35 59 35 129q0 68 -34 127h555zM1258 1695q13 -13 13 -30.5t-13 -29.5l-845 -845q-12 -13 -29.5 -13t-30.5 13l-483 483q-12 12 -12 29.5t12 30.5l181 181q13 13 30.5 13t30.5 -13 l271 -271l634 633q12 13 29.5 13t30.5 -13zM2005 1152q18 0 30.5 -12.5t12.5 -30.5v-170q0 -18 -12.5 -30.5t-30.5 -12.5h-1184l256 256h928zM2048 469v-170q0 -18 -12.5 -30.5t-30.5 -12.5h-1578q-18 0 -30.5 12.5t-12.5 30.5v170q0 18 12.5 30.5t30.5 12.5h1578 q18 0 30.5 -12.5t12.5 -30.5z" />
<glyph unicode="SNIPPETS" d="M1920 2048q52 0 90 -38t38 -90v-1280q0 -52 -38 -90t-90 -38h-733l-529 -530q-27 -25 -61 -25q-18 0 -32 7q-24 10 -38.5 31.5t-14.5 47.5v469h-384q-52 0 -90 38t-38 90v1280q0 52 38 90t90 38h1024v-981q0 -30 28 -40t47 12l181 217l181 -217q13 -15 32 -15q7 0 15 3 q28 10 28 40v981h256z" />
<glyph unicode="ITEMS" d="M1301 2091q203 0 347 -144t144 -347t-144 -347t-347 -144t-346.5 144t-143.5 347t143.5 347t346.5 144zM507 1300l469 -853q12 -22 -1 -42q-11 -21 -36 -21h-939q-24 0 -37 21q-12 22 0 42l469 853q13 23 37 23q25 0 38 -23zM2005 811q18 0 30.5 -12.5t12.5 -30.5v-725 q0 -18 -12.5 -30.5t-30.5 -12.5h-725q-18 0 -30.5 12.5t-12.5 30.5v725q0 18 12.5 30.5t30.5 12.5h725z" />
<glyph unicode="FEATURED&#x20;ITEM" d="M1408 2048q130 0 248.5 -51t204 -136.5t136.5 -204t51 -248.5t-51 -248.5t-136.5 -204t-204 -136.5t-248.5 -51t-248.5 51t-204 136.5t-136.5 204t-51 248.5t51 248.5t136.5 204t204 136.5t248.5 51zM1195 1451q71 0 120.5 49.5t49.5 120.5t-49.5 121t-120.5 50t-121 -50 t-50 -121t50 -120.5t121 -49.5zM669 980q115 -196 311 -311l-955 -703q-10 -9 -25 -9q-17 0 -30 13q-11 11 -12.5 26.5t8.5 28.5z" />
<glyph unicode="PROMOTED&#x20;ITEM" d="M1919 1920q51 0 90 -38.5t39 -89.5v-1451q0 -51 -38 -89.5t-90 -38.5q-42 0 -77 26q-184 138 -429.5 233t-474.5 119v952q228 22 473.5 117t430.5 235q32 25 76 25zM852 52q5 -20 -8 -36t-33 -16h-271q-14 0 -26 9.5t-15 23.5l-131 564h-240q-53 0 -90.5 37.5t-37.5 90.5 v683q0 53 37.5 90.5t90.5 37.5h597v-937z" />
<glyph unicode="QUICK&#x20;LISTING" d="M2005 2048q18 0 30.5 -12.5t12.5 -30.5v-1962q0 -18 -12.5 -30.5t-30.5 -12.5h-1962q-18 0 -30.5 12.5t-12.5 30.5v597q0 280 139 516t373 371v478q0 18 12.5 30.5t30.5 12.5h1450zM1664 1664v213h-981v-213h981zM1195 1109q35 0 60 25.5t25 60.5t-25 60t-60 25 t-60.5 -25t-25.5 -60t25.5 -60.5t60.5 -25.5zM512 1280q-35 0 -60 -25t-25 -60t25 -60.5t60 -25.5t60 25.5t25 60.5t-25 60t-60 25zM853 1109q35 0 60.5 25.5t25.5 60.5t-25.5 60t-60.5 25t-60 -25t-25 -60t25 -60.5t60 -25.5zM341 853q35 0 60.5 25.5t25.5 60.5t-25.5 60 t-60.5 25t-60 -25t-25 -60t25 -60.5t60 -25.5zM683 1024q-35 0 -60.5 -25t-25.5 -60t25.5 -60.5t60.5 -25.5t60 25.5t25 60.5t-25 60t-60 25zM1024 853q35 0 60 25.5t25 60.5t-25 60t-60 25t-60 -25t-25 -60t25 -60.5t60 -25.5zM640 256q88 0 150.5 62t62.5 151h-426 q0 -89 62.5 -151t150.5 -62z" />
<glyph unicode="IOS&#x20;SHARE" d="M1523 1566q20 -19 10 -46q-12 -27 -40 -27h-298v-597q0 -18 -12.5 -30.5t-30.5 -12.5h-256q-18 0 -30.5 12.5t-12.5 30.5v597h-298q-28 0 -40 27q-10 27 10 46l469 469q12 13 30 13t30 -13zM2005 1024q18 0 30.5 -12.5t12.5 -30.5v-725q0 -106 -75 -181t-181 -75h-1536 q-106 0 -181 75t-75 181v725q0 18 12.5 30.5t30.5 12.5h170q18 0 30.5 -12.5t12.5 -30.5v-725h1536v725q0 18 12.5 30.5t30.5 12.5h170z" />
<glyph unicode="ETSY&#x20;LOGO" horiz-adv-x="5747" d="M1957 1289q81 8 146 37.5t120.5 86t95.5 148t63 217.5h125v-437l427 21l-21 -198l-416 32v-770q0 -159 50.5 -230.5t147.5 -71.5q78 0 139.5 35t88.5 80l62 -73q-30 -70 -95 -120.5t-144.5 -74t-165.5 -23.5q-106 0 -189.5 40t-134.5 123.5t-51 199.5v874h-248v104z M751 1902q-37 0 -45 -8t-8 -34v-769q271 0 416 11q88 15 114.5 38.5t41.5 106.5l42 167h124l-21 -365l11 -374h-125l-31 146q-22 74 -55.5 100.5t-100.5 34.5q-46 5 -150 7.5t-185 2.5l-81 1v-645q0 -93 49.5 -135t158.5 -42h437q40 0 68 2t64.5 8t64.5 20t57.5 36t54.5 58 t45 84l113 250h105q-7 -35 -35.5 -276t-37.5 -337q-395 10 -561 10h-749l-447 -10v113l145 32q79 16 107.5 44.5t28.5 90.5q11 282 11 749q0 208 -2.5 395t-5.5 270l-3 83q0 68 -27.5 93.5t-108.5 41.5l-145 31v114l437 -9h832q74 0 185.5 7.5t186.5 14.5l74 8 q-10 -177 -21 -592h-114l-42 146q-32 144 -83 212t-135 68h-654zM3172 437h105l83 -198q62 -167 270 -167q126 0 188 58t62 150q0 71 -38.5 126t-100 90.5t-135.5 67.5t-148.5 69t-136 83t-100 120.5t-38.5 171.5q0 99 38 175.5t106.5 124t158 72t196.5 24.5 q103 0 221.5 -17t184.5 -46q-32 -158 -32 -343l-103 -10l-73 208q-16 39 -74 66t-134 27q-105 0 -177.5 -46.5t-72.5 -140.5q0 -51 24.5 -93.5t66 -73.5t95.5 -58.5t113.5 -53.5t119 -54.5t113.5 -65.5t95.5 -81.5t66 -108t24.5 -139.5q0 -131 -72.5 -227t-191 -142.5 t-267.5 -46.5q-97 0 -206 21t-170 42l-61 21q22 128 0 395zM4389 -645q-169 0 -301 84q28 102 73 395l114 10l42 -218q18 -94 124 -94q116 0 239.5 86.5t239.5 287.5q-19 45 -108 269t-191.5 473t-190.5 443q-39 86 -59.5 108t-74.5 38l-53 20v105l313 -11l384 21v-104 l-94 -21q-52 -7 -77.5 -33t-25.5 -60q0 -21 10 -42q21 -67 125 -351.5t187 -490.5q68 144 183 421.5t149 368.5q4 15 10 31.5t8.5 27t2.5 24.5q0 40 -24.5 64.5t-78.5 39.5l-74 21v104l292 -10l270 10v-104l-52 -41q-78 -31 -101.5 -52t-54.5 -84l-457 -1070 q-56 -128 -116.5 -230t-115.5 -170.5t-115 -119t-109.5 -78t-105.5 -43.5t-97 -20.5t-90 -4.5z" />
<glyph unicode="EARTH" d="M1024 2048q209 0 398.5 -81t326.5 -218t218 -326.5t81 -398.5t-81 -398.5t-218 -326.5t-326.5 -218t-398.5 -81t-398.5 81t-326.5 218t-218 326.5t-81 398.5t81 398.5t218 326.5t326.5 218t398.5 81zM1152 213q49 0 114 39t125.5 104t102.5 164t42 205q0 125 -87 212 t-212 87h-170q-95 0 -154.5 42.5t-59.5 106.5q0 45 31.5 76t75.5 31q29 0 50.5 -13.5t33 -29t28.5 -29t37 -13.5q36 0 61 25t25 60q0 39 -13.5 72t-27.5 50.5t-40 43.5q78 146 81 334q0 16 -10 28.5t-26 14.5q-77 12 -135 12q-274 -9 -435.5 -133.5t-161.5 -336.5 q0 -126 63.5 -234t171.5 -171.5t234 -63.5h7q-7 -29 -7 -64q0 -97 60 -173t153 -97v-306q0 -18 12.5 -30.5t30.5 -12.5z" />
<glyph unicode="GIFT" d="M1323 2091q107 0 181.5 -74.5t74.5 -181.5q0 -29 -7 -58t-15.5 -52t-29 -50t-34 -44.5t-44 -43.5t-45 -38.5t-52.5 -38.5t-51 -34.5t-54.5 -35t-51.5 -32.5h-342q-10 6 -51.5 32.5t-54.5 35t-51 34.5t-52.5 38.5t-45 38.5t-44 43.5t-34 44.5t-29 50t-15.5 52t-7 58 q0 107 74.5 181.5t181.5 74.5q44 0 84 -14t81 -46t76 -92.5t58 -144.5q23 84 58 144.5t76 92.5t81 46t84 14zM128 1408h725v-1408h-597q-52 0 -90 38t-38 90v768h-85q-18 0 -30.5 12.5t-12.5 30.5v341q0 52 38 90t90 38zM1920 1408q52 0 90 -38t38 -90v-341 q0 -18 -12.5 -30.5t-30.5 -12.5h-85v-768q0 -52 -38 -90t-90 -38h-597v1408h725z" />
<glyph unicode="Shop" d="M2014 1536q34 -59 34 -128q0 -106 -75 -181t-181 -75t-181 75t-75 181q0 -106 -75 -181t-181 -75t-181 75t-75 181q0 -106 -75 -181t-181 -75t-181 75t-75 181q0 -106 -75 -181t-181 -75t-181 75t-75 181q0 69 34 128l238 445q17 31 47 49t65 18h1280q35 0 65 -18t47 -49 zM1664 981h256v-853q0 -52 -38 -90t-90 -38h-1536q-52 0 -90 38t-38 90v853h256v-384h1280v384z" />
<glyph unicode="KEYWORDS" d="M38 751q-38 37 -38 91t38 92l1102 1102q12 12 29 12h751q53 0 90.5 -37.5t37.5 -90.5v-751q0 -17 -12 -29l-1102 -1102q-38 -38 -92 -38t-91 38zM1408 1600q0 -80 56 -136t136 -56t136 56t56 136t-56 136t-136 56t-136 -56t-56 -136z" />
<glyph unicode="BROWSE" d="M1305 1530q-37 -38 -90 -38t-91 38t-38 91t38 91q137 137 331 137h1q194 0 331 -137l389 -389h-362l-208 207q-61 63 -150 63h-1q-89 0 -150 -63zM234 1323h-362l389 389q137 137 331 137h1q194 0 331 -137q38 -38 38 -91t-38 -91t-91 -38t-90 38q-61 63 -150 63 q-90 0 -151 -63zM2133 1152q18 0 30.5 -12.5t12.5 -30.5v-128q0 -17 -9 -38.5t-21 -34.5l-98 -97v-86q0 -194 -137.5 -331.5t-331.5 -137.5t-332 137.5t-138 331.5h-170q0 -194 -138 -331.5t-332 -137.5t-331.5 137.5t-137.5 331.5v86l-98 97q-12 13 -21 34.5t-9 38.5v128 q0 18 12.5 30.5t30.5 12.5h768q95 0 166 -61t86 -152h178q15 91 86 152t166 61h768zM1835 704v192q0 18 -12.5 30.5t-30.5 12.5h-427q-17 0 -29.5 -12.5t-12.5 -30.5v-192q0 -98 75 -166.5t181 -68.5t181 69t75 166zM725 704v192q0 18 -12.5 30.5t-29.5 12.5h-427 q-18 0 -30.5 -12.5t-12.5 -30.5v-192q0 -97 75 -166t181 -69t181 68.5t75 166.5z" />
<glyph unicode="APPROVE" d="M1920 1280q52 0 90 -38t38 -90v-128q0 -53 -15 -125t-36 -121l-284 -660q-21 -49 -73.5 -83.5t-105.5 -34.5h-382q-53 0 -125 14.5t-121 34.5l-394 164v982q216 85 370 271.5t303 515.5q49 104 138 104q170 0 170 -299q0 -58 -19 -166l-66 -341h512zM341 1237v-1194 q0 -18 -12.5 -30.5t-29.5 -12.5h-256q-18 0 -30.5 12.5t-12.5 30.5v1194q0 18 12.5 30.5t30.5 12.5h256q17 0 29.5 -12.5t12.5 -30.5z" />
<glyph unicode="DISAPPROVE" d="M2048 896q0 -52 -38 -90t-90 -38h-512l66 -341q19 -108 19 -166q0 -299 -170 -299q-89 0 -138 104q-149 329 -303 515.5t-370 271.5v982l394 164q49 20 121 34.5t125 14.5h382q53 0 105.5 -34.5t73.5 -83.5l284 -660q21 -49 36 -121t15 -125v-128zM341 1877v-1194 q0 -18 -12.5 -30.5t-29.5 -12.5h-256q-18 0 -30.5 12.5t-12.5 30.5v1194q0 18 12.5 30.5t30.5 12.5h256q17 0 29.5 -12.5t12.5 -30.5z" />
<glyph unicode="CONVERSATIONS" d="M1920 2048q52 0 90 -38t38 -90v-114l-993 -479q-11 -5 -31.5 -5t-30.5 5l-993 479v114q0 52 38 90t90 38h1792zM1147 1135l901 434v-929q0 -52 -38 -90t-90 -38h-733l-529 -530q-27 -25 -61 -25q-18 0 -32 7q-24 10 -38.5 31.5t-14.5 47.5v469h-384q-52 0 -90 38t-38 90 v929l901 -434q55 -26 123 -26t123 26z" />
<glyph unicode="CREDIT&#x20;CARD" d="M1920 1792q53 0 90.5 -37.5t37.5 -90.5v-128h-2048v128q0 53 37.5 90.5t90.5 37.5h1792zM0 384v768h2048v-768q0 -53 -37.5 -90.5t-90.5 -37.5h-1792q-53 0 -90.5 37.5t-37.5 90.5z" />
<glyph unicode="FOLDER" d="M0 384v1280q0 53 37.5 90.5t90.5 37.5h740q28 0 55.5 -20.5t36.5 -48.5l64 -187h896q53 0 90.5 -37.5t37.5 -90.5v-1024q0 -53 -37.5 -90.5t-90.5 -37.5h-1792q-53 0 -90.5 37.5t-37.5 90.5z" />
<glyph unicode="CALENDAR" d="M1920 2048q53 0 90.5 -37.5t37.5 -90.5v-1792q0 -53 -37.5 -90.5t-90.5 -37.5h-1792q-53 0 -90.5 37.5t-37.5 90.5v1792q0 53 37.5 90.5t90.5 37.5h171v-256q0 -53 37.5 -90.5t90.5 -37.5t90.5 37.5t37.5 90.5v256h938v-256q0 -53 37.5 -90.5t90.5 -37.5t90.5 37.5 t37.5 90.5v256h171zM1749 896v341h-341v-341h341zM1195 896v341h-342v-341h342zM640 896v341h-341v-341h341zM1749 299v341h-341v-341h341zM1195 299v341h-342v-341h342zM640 299v341h-341v-341h341z" />
<glyph unicode="BAR&#x20;CHART" d="M768 2005q0 18 12.5 30.5t30.5 12.5h426q18 0 30.5 -12.5t12.5 -30.5v-1962q0 -18 -12.5 -30.5t-30.5 -12.5h-426q-18 0 -30.5 12.5t-12.5 30.5v1962zM1536 1493q0 18 12.5 30.5t30.5 12.5h426q18 0 30.5 -12.5t12.5 -30.5v-1450q0 -18 -12.5 -30.5t-30.5 -12.5h-426 q-18 0 -30.5 12.5t-12.5 30.5v1450zM0 981q0 18 12.5 30.5t30.5 12.5h426q18 0 30.5 -12.5t12.5 -30.5v-938q0 -18 -12.5 -30.5t-30.5 -12.5h-426q-18 0 -30.5 12.5t-12.5 30.5v938z" />
<glyph unicode="CLIPBOARD" d="M1321 1820q77 -26 124.5 -92t47.5 -149q0 -18 -12.5 -30.5t-29.5 -12.5h-854q-17 0 -29.5 12.5t-12.5 30.5q0 83 47.5 149t124.5 92q11 114 96 192.5t201 78.5t201 -78.5t96 -192.5zM1024 1664q53 0 90.5 37.5t37.5 90.5t-37.5 90.5t-90.5 37.5t-90.5 -37.5t-37.5 -90.5 t37.5 -90.5t90.5 -37.5zM1792 1920q52 0 90 -38t38 -90v-1664q0 -52 -38 -90t-90 -38h-1536q-52 0 -90 38t-38 90v1664q0 52 38 90t90 38h299q-79 -60 -125 -149t-46 -192v-1323h1280v1323q0 103 -46 192t-125 149h299zM1493 1237v-85q0 -18 -12.5 -30.5t-29.5 -12.5h-854 q-17 0 -29.5 12.5t-12.5 30.5v85q0 18 12.5 30.5t29.5 12.5h854q17 0 29.5 -12.5t12.5 -30.5zM1024 896v-85q0 -18 -12.5 -30.5t-30.5 -12.5h-384q-17 0 -29.5 12.5t-12.5 30.5v85q0 18 12.5 30.5t29.5 12.5h384q18 0 30.5 -12.5t12.5 -30.5z" />
<glyph unicode="COMPOSE" d="M2036 1737l-116 -116l-299 299l116 116q13 13 30 13t30 -13l239 -239q13 -13 13 -30t-13 -30zM602 901l891 891l299 -299l-891 -891q-11 -7 -12 -7l-410 -171l-3 -2q-2 0 -6.5 -1t-7.5 -1q-18 0 -28 14q-20 20 -12 42l2 3l171 410q0 1 7 12zM1408 256v597l256 256v-853 q0 -105 -75.5 -180.5t-180.5 -75.5h-1152q-105 0 -180.5 75.5t-75.5 180.5v1280q0 105 75.5 180.5t180.5 75.5h981l-256 -256h-725v-1280h1152z" />
<glyph unicode="SEARCH" d="M768 2048q209 0 385.5 -103t279.5 -279.5t103 -385.5t-103 -385.5t-279.5 -279.5t-385.5 -103t-385.5 103t-279.5 279.5t-103 385.5t103 385.5t279.5 279.5t385.5 103zM768 768q212 0 362 150t150 362t-150 362t-362 150t-362 -150t-150 -362t150 -362t362 -150z M2036 254q12 -13 12 -30.5t-12 -29.5l-182 -182q-12 -12 -29.5 -12t-30.5 12l-463 464q142 99 241 241z" />
<glyph unicode="LOCKED" d="M1664 1152q53 0 90.5 -37.5t37.5 -90.5v-896q0 -53 -37.5 -90.5t-90.5 -37.5h-1280q-53 0 -90.5 37.5t-37.5 90.5v896q0 53 37.5 90.5t90.5 37.5h128v384q0 104 40.5 198.5t109.5 163.5t163.5 109.5t198.5 40.5t198.5 -40.5t163.5 -109.5t109.5 -163.5t40.5 -198.5v-384 h128zM768 1536v-384h512v384q0 106 -75 181t-181 75t-181 -75t-75 -181z" />
<glyph unicode="INSECURE" d="M1792 939v597q0 106 -75 181t-181 75t-181 -75t-75 -181v-384h128q53 0 90.5 -37.5t37.5 -90.5v-896q0 -53 -37.5 -90.5t-90.5 -37.5h-1280q-53 0 -90.5 37.5t-37.5 90.5v896q0 53 37.5 90.5t90.5 37.5h896v384q0 104 40.5 198.5t109.5 163.5t163.5 109.5t198.5 40.5 t198.5 -40.5t163.5 -109.5t109.5 -163.5t40.5 -198.5v-597q0 -18 -12.5 -30.5t-30.5 -12.5h-170q-18 0 -30.5 12.5t-12.5 30.5z" />
<glyph unicode=" "  horiz-adv-x="512" />
<glyph unicode="&#x09;" horiz-adv-x="512" />
<glyph unicode="&#xa0;" horiz-adv-x="512" />
<glyph unicode="A" horiz-adv-x="1375" d="M905 607l-218 654l-237 -654h455zM1344 0h-218l-145 429h-595l-154 -429h-204l555 1479h230z" />
<glyph unicode="B" horiz-adv-x="1375" d="M1287 443q0 -132 -64.5 -234.5t-168.5 -155.5t-227 -53h-680v1479h668q165 0 280 -99t119 -275q0 -65 -20.5 -125.5t-65 -110.5t-106.5 -73q117 -41 191 -133.5t74 -219.5zM1017 1062q0 122 -62.5 181t-219.5 63h-384v-455h389q139 0 206 60.5t71 150.5zM1088 417 q0 66 -14 111.5t-50.5 82.5t-105 56t-171.5 20h-396v-519h462q69 0 123 23t85.5 60.5t48 79.5t18.5 86z" />
<glyph unicode="C" horiz-adv-x="1489" d="M1403 543q-11 -96 -44.5 -183t-89 -160t-128 -126.5t-167 -83.5t-201.5 -30q-150 0 -270.5 49t-196.5 127.5t-127.5 184t-72.5 212t-21 218.5q0 116 27 225t82.5 206t135 170.5t191 118t242.5 48.5q57 0 115.5 -9t125.5 -28.5t127.5 -57t113 -89t90.5 -129.5t52 -173 h-195q-29 147 -137.5 225.5t-262.5 78.5q-105 0 -189 -31t-140.5 -84t-94 -128.5t-55 -160t-19.5 -182.5q2 -91 19 -177t53 -166t87.5 -139.5t128 -95.5t169.5 -36q193 0 310 107t146 299h196z" />
<glyph unicode="D" horiz-adv-x="1489" d="M1384 792q0 -125 -24.5 -240.5t-74 -215t-119 -173.5t-166 -117.5t-208.5 -45.5h-628v1479h621q77 0 155.5 -22t157.5 -74.5t140 -129t101.5 -196t44.5 -265.5zM1178 775q0 85 -13.5 160.5t-45.5 144t-79.5 118t-120 79t-163.5 29.5h-389v-1138h413q119 0 210.5 81 t139.5 218t48 308z" />
<glyph unicode="E" horiz-adv-x="1375" d="M1266 0h-1093v1479h1081v-180h-879v-450h810v-178h-810v-493h891v-178z" />
<glyph unicode="F" horiz-adv-x="1256" d="M1197 1299h-822v-450h725v-178h-725v-671h-202v1479h1024v-180z" />
<glyph unicode="G" horiz-adv-x="1598" d="M1446 0h-128l-47 197q-70 -98 -200 -161.5t-286 -68.5q-146 0 -262 39t-195 108.5t-131.5 168.5t-76 215t-23.5 253q0 112 26.5 219.5t83.5 205t137.5 171t197 118t254.5 45.5q113 0 217.5 -31t190.5 -90t144.5 -152t73.5 -208h-192q-27 109 -95 180t-154 99.5t-194 28.5 q-212 0 -349 -161.5t-137 -435.5q0 -295 134 -454.5t352 -159.5q173 0 310 106q91 74 125.5 158.5t38.5 225.5h-460v171h645v-787z" />
<glyph unicode="H" horiz-adv-x="1489" d="M1332 0h-201v687h-773v-687h-202v1479h202v-614h773v614h201v-1479z" />
<glyph unicode="I" horiz-adv-x="569" d="M386 0h-201v1479h201v-1479z" />
<glyph unicode="J" horiz-adv-x="1029" d="M882 398q0 -117 -33.5 -203t-93.5 -136t-134.5 -73.5t-165.5 -25.5q-93 0 -167 23t-121 60t-78 86.5t-43.5 99t-12.5 100.5v145h187v-104q0 -123 54.5 -181.5t168.5 -58.5q122 0 177.5 62t57.5 194v1093h204v-1081z" />
<glyph unicode="K" horiz-adv-x="1375" d="M1363 0h-258l-520 740l-232 -221v-519h-201v1479h201v-720l718 720h275l-616 -597z" />
<glyph unicode="L" horiz-adv-x="1147" d="M1105 0h-953v1479h201v-1301h752v-178z" />
<glyph unicode="M" horiz-adv-x="1711" d="M1567 0h-197v1242l-412 -1242h-199l-422 1240v-1240h-190v1479h287l426 -1254l422 1254h285v-1479z" />
<glyph unicode="N" horiz-adv-x="1489" d="M1332 0h-227l-754 1192v-1192h-195v1479h237l745 -1197v1197h194v-1479z" />
<glyph unicode="O" horiz-adv-x="1598" d="M1519 740q0 -56 -5.5 -112t-23.5 -134.5t-48 -146.5t-85 -138.5t-127.5 -121t-182.5 -83.5t-243 -35q-145 0 -265.5 43t-203 116.5t-140 172.5t-84 209.5t-26.5 229.5q0 124 27 236t85 209t141.5 168.5t202.5 113t263 43.5q113 0 211 -25.5t169.5 -69.5t129.5 -105 t95.5 -129.5t63 -145t36 -149.5t10.5 -146zM1318 740q0 264 -136.5 426t-377.5 166q-230 0 -372.5 -160.5t-142.5 -431.5q0 -267 138 -428t377 -165q241 0 377.5 162.5t136.5 430.5z" />
<glyph unicode="P" horiz-adv-x="1375" d="M1278 1062q0 -66 -14 -126t-47 -117t-82.5 -99t-125.5 -68.5t-170 -28.5h-464v-623h-202v1479h666q188 0 311 -109t128 -308zM1071 1062q0 244 -291 244h-405v-514h398q295 0 298 270z" />
<glyph unicode="Q" horiz-adv-x="1598" d="M1519 740q0 -358 -215 -569l201 -157l-97 -121l-228 178q-155 -102 -379 -102q-145 0 -265.5 43t-203.5 116.5t-140.5 172.5t-84 209.5t-26.5 229.5q0 124 27 236t85 209t141.5 168.5t203 113t263.5 43.5q113 0 210.5 -25.5t169.5 -69.5t130 -105t96.5 -129.5t64 -145 t36.5 -149.5t11 -146zM1313 740q0 264 -135.5 426t-376.5 166q-231 0 -372.5 -160t-141.5 -432q0 -268 137 -428.5t377 -164.5q119 0 216 47l-154 117l102 125l189 -144q159 165 159 448z" />
<glyph unicode="R" horiz-adv-x="1489" d="M1124 1052q0 112 -58.5 181t-186.5 73h-523v-502h507q112 0 186.5 69t74.5 179zM1384 0h-225q-26 57 -37.5 150t-15 186.5t-6.5 113.5q-26 178 -242 181h-502v-631h-202v1479h709q89 0 169 -24t146 -71.5t106 -128t43 -184.5q0 -230 -215 -343q79 -25 126 -87t56 -153 q6 -56 12.5 -157t14.5 -165.5t25 -106.5q18 -42 38 -59z" />
<glyph unicode="S" horiz-adv-x="1375" d="M1273 415q0 -145 -76.5 -247.5t-204.5 -150.5t-297 -48q-284 0 -438 127t-155 392h185q0 -78 24 -139t62.5 -98.5t93.5 -62.5t109.5 -35.5t118.5 -12.5q59 0 112 7.5t104 25.5t88 45.5t59.5 71t22.5 99.5q0 39 -8.5 69.5t-24.5 54t-44.5 42.5t-64 34t-88 29.5t-110.5 28 t-138 31.5q-36 8 -55 12q-67 15 -119.5 32.5t-106.5 47.5t-90 67.5t-59.5 94t-25.5 125.5q0 92 30 171.5t90 143.5t161 101t231 37q111 0 201.5 -21t148 -51t101.5 -77.5t65.5 -84.5t36 -89.5t17 -75.5t5.5 -58q1 -9 1 -12h-185q0 63 -21.5 114t-57 84.5t-85 56.5 t-100.5 33.5t-108 12.5q-51 0 -96 -6.5t-90.5 -24.5t-77.5 -46.5t-52.5 -75.5t-20.5 -108q0 -141 178 -180l422 -97q332 -74 332 -389z" />
<glyph unicode="T" horiz-adv-x="1256" d="M1230 1299h-502v-1299h-202v1299h-498v180h1202v-180z" />
<glyph unicode="U" horiz-adv-x="1489" d="M1327 486q0 -105 -35.5 -195.5t-106 -162t-187 -113.5t-268.5 -43q-282 0 -423.5 130.5t-145.5 373.5v1003h202v-965q0 -171 95 -269t272 -98q180 0 285.5 94.5t110.5 268.5v969h201v-993z" />
<glyph unicode="V" horiz-adv-x="1375" d="M1330 1479l-538 -1479h-214l-538 1479h233l419 -1263l436 1263h202z" />
<glyph unicode="W" horiz-adv-x="1941" d="M1911 1479l-392 -1479h-208l-337 1225l-346 -1225h-211l-384 1479h216l272 -1206l339 1206h216l339 -1206l273 1206h223z" />
<glyph unicode="X" horiz-adv-x="1375" d="M1332 0h-249l-396 607l-410 -607h-239l529 759l-498 720h251l375 -566l376 566h240l-496 -723z" />
<glyph unicode="Y" horiz-adv-x="1375" d="M1342 1479l-557 -889v-590h-200v590l-554 889h242l422 -711l424 711h223z" />
<glyph unicode="Z" horiz-adv-x="1256" d="M1209 0h-1162v164l906 1137h-839v178h1095v-173l-910 -1126h910v-180z" />
<glyph unicode="a" horiz-adv-x="1147" d="M787 358v194q-29 -19 -84 -34t-111.5 -23.5t-117.5 -25t-108 -37.5t-77.5 -62t-30.5 -97q0 -78 52 -118.5t140 -40.5q51 0 109 17t109.5 47t85 77.5t33.5 102.5zM801 140q-154 -166 -389 -173q-151 0 -246 89t-95 214q0 60 15.5 109t39.5 82.5t64 60.5t76.5 42.5t91 29.5 t93.5 20.5t98 16.5t91 16q82 14 117 50.5t35 79.5q0 83 -63.5 133t-185.5 50q-110 0 -176.5 -53t-70.5 -160h-168q0 147 111.5 250.5t327.5 107.5q106 0 195.5 -32.5t150.5 -106.5t61 -179v-576q0 -60 22.5 -82t96.5 4v-133q-57 -21 -119 -21q-168 0 -173 161z" />
<glyph unicode="b" horiz-adv-x="1147" d="M1088 569q3 -85 -10.5 -166.5t-48 -161.5t-88 -140t-138.5 -97t-191 -37q-104 0 -187.5 42.5t-130.5 123.5l-14 -133h-164v1479h185v-538q59 78 138.5 119t191.5 45q197 0 323.5 -149.5t133.5 -386.5zM898 538q0 198 -79 301.5t-222 103.5q-82 0 -143.5 -38.5t-95 -100.5 t-49 -128.5t-15.5 -135.5q0 -404 313 -414q140 0 215.5 112.5t75.5 299.5z" />
<glyph unicode="c" horiz-adv-x="1029" d="M991 379q-12 -111 -57 -194t-111 -129t-138 -67.5t-149 -21.5q-203 0 -340 158.5t-137 412.5q0 140 39.5 251t107 179t153.5 103.5t184 35.5q62 0 119.5 -11.5t114.5 -40t100.5 -71.5t74.5 -112t39 -156h-173q-10 106 -83.5 166.5t-184.5 60.5q-63 0 -114.5 -21t-94 -66 t-66.5 -126t-24 -192q0 -170 85 -287.5t214 -117.5q109 0 176.5 62t88.5 184h176z" />
<glyph unicode="d" horiz-adv-x="1147" d="M555 943q-143 0 -222 -103.5t-79 -301.5q0 -187 75.5 -299.5t215.5 -112.5q313 10 313 414q0 69 -15.5 135.5t-48.5 128.5t-94.5 100.5t-144.5 38.5zM540 -33q-106 0 -191 37t-138.5 97t-88 140t-48 161.5t-10.5 166.5q7 237 133.5 386.5t323.5 149.5q113 -4 191.5 -45 t138.5 -119v538h185v-1479h-164v152q-48 -82 -139.5 -133.5t-192.5 -51.5z" />
<glyph unicode="e" horiz-adv-x="1147" d="M1074 476h-804q0 -150 91.5 -246.5t226.5 -96.5q68 0 125 22t91 54.5t52.5 66.5t18.5 61h185q-30 -172 -161 -270t-321 -98q-114 0 -209 42.5t-157 116t-97 171t-37 208.5q0 270 139.5 436t365.5 166q160 0 273.5 -81.5t168 -223.5t49.5 -328zM884 623q0 144 -87 234.5 t-212 90.5q-128 0 -219 -95.5t-96 -229.5h614z" />
<glyph unicode="f" horiz-adv-x="569" d="M538 1493v-149q-31 5 -76 5q-54 0 -76.5 -25t-22.5 -84v-164h175v-163h-175v-913h-185v913h-150v163h150v199q0 98 73.5 164t191.5 66q55 0 95 -12z" />
<glyph unicode="g" horiz-adv-x="1228" d="M905 536q0 180 -82.5 283t-227.5 103q-56 0 -109 -23t-97 -67t-70.5 -116.5t-26.5 -163.5q0 -106 26.5 -189.5t71.5 -132.5t99 -74.5t113 -25.5q132 0 216 107.5t87 298.5zM1086 47q0 -262 -128 -390.5t-358 -128.5q-33 0 -66 3t-75 12.5t-79.5 24.5t-74.5 41.5t-63.5 61 t-43.5 85t-18 111.5h180q0 -80 68 -125t160 -45q150 0 233.5 83t83.5 253v64q-65 -70 -145.5 -99t-183.5 -29q-84 0 -166.5 36.5t-151 103t-112 171.5t-46.5 230q0 277 139.5 436t362.5 159q98 0 180 -42t123 -110v130h181v-1036z" />
<glyph unicode="h" horiz-adv-x="1147" d="M1012 0h-185v704q0 117 -50 178t-161 61q-61 0 -113.5 -21t-96 -62.5t-68.5 -112t-25 -162.5v-585h-185v1479h185v-547q55 85 147 128t187 47q55 0 104 -10.5t98 -38t84 -70.5t57 -112.5t22 -159.5v-716z" />
<glyph unicode="i" horiz-adv-x="460" d="M318 1271h-185v203h185v-203zM318 0h-185v1076h185v-1076z" />
<glyph unicode="j" horiz-adv-x="543" d="M405 1271h-185v208h185v-208zM405 -185q0 -106 -70 -175t-200 -69q-59 0 -92 7v157q41 -10 83 -10q51 0 72.5 29t21.5 101v1221h185v-1261z" />
<glyph unicode="k" horiz-adv-x="1029" d="M1029 0h-230l-356 526l-130 -128v-398h-185v1479h185v-860l460 457h232l-429 -412z" />
<glyph unicode="l" horiz-adv-x="460" d="M320 0h-187v1479h187v-1479z" />
<glyph unicode="m" horiz-adv-x="1711" d="M1586 0h-185v695q0 248 -199 248q-108 0 -177 -78t-74 -211v-654h-185v742q0 84 -42 142.5t-131 58.5q-53 0 -99.5 -18.5t-87 -58t-65 -112t-26.5 -169.5v-585h-185v1076h171v-152q57 89 144 135t186 46q113 0 179.5 -46t109.5 -127q46 72 131 122.5t198 50.5 q42 0 84 -8.5t89 -33.5t82 -63.5t58.5 -105t23.5 -152.5v-742z" />
<glyph unicode="n" horiz-adv-x="1147" d="M1012 0h-185v673q0 61 -10 107.5t-33 84.5t-65.5 58t-102.5 20q-130 0 -216.5 -88.5t-86.5 -240.5v-614h-185v1076h175v-156q15 24 43.5 52.5t72 60t104 52t124.5 20.5q166 0 265.5 -96t99.5 -293v-716z" />
<glyph unicode="o" horiz-adv-x="1147" d="M1081 538q0 -112 -34.5 -213t-97.5 -179.5t-159.5 -126t-213.5 -50.5q-94 0 -175 30.5t-140.5 84t-102 125t-64 155.5t-21.5 174q0 155 58 283t174 207t271 79t271.5 -79t175 -207t58.5 -283zM891 538q1 68 -16.5 136t-53.5 129.5t-100 101t-145 41.5q-80 0 -143 -39 t-98.5 -101.5t-53.5 -131t-18 -136.5q0 -81 18 -152.5t54 -130.5t98 -93t143 -34q82 0 143.5 34t97 93.5t53.5 129.5t21 153z" />
<glyph unicode="p" horiz-adv-x="1147" d="M600 133q143 0 222 103.5t79 301.5q0 187 -76 300t-216 113q-160 -6 -236.5 -114t-76.5 -301q0 -69 15.5 -135t48.5 -128.5t95 -101t145 -38.5zM614 1109q106 0 191 -37t138.5 -97t88.5 -140t48 -161.5t10 -166.5q-7 -237 -134 -386t-325 -149q-112 3 -190 44t-138 119 v-562h-187v1503h166v-152q48 82 139.5 133.5t192.5 51.5z" />
<glyph unicode="q" horiz-adv-x="1147" d="M45 507q0 85 14 166t48.5 161.5t87 140t136.5 97t190 37.5q103 0 186 -42.5t130 -123.5l16 133h166v-1503h-185v562q-62 -78 -140 -119t-189 -44q-201 0 -328 143.5t-132 391.5zM235 538q0 -198 80 -301.5t223 -103.5q66 0 119 26t86.5 67t55.5 95.5t31 107.5t9 107 q0 404 -313 415q-140 0 -215.5 -113t-75.5 -300z" />
<glyph unicode="r" horiz-adv-x="683" d="M609 913q-154 0 -250 -71.5t-96 -196.5v-645h-185v1076h178v-182q94 206 353 206v-187z" />
<glyph unicode="s" horiz-adv-x="1029" d="M960 325q0 -155 -113.5 -256.5t-310.5 -101.5q-97 0 -176 20.5t-142.5 64.5t-101.5 118.5t-45 175.5h178q0 -220 287 -220q101 0 172.5 43t71.5 125q0 44 -23 70t-102 55t-247 69q-48 12 -81.5 22.5t-78 32.5t-72 49t-47.5 71.5t-20 99.5q0 163 114.5 253.5t293.5 90.5 q99 0 175.5 -26t118.5 -63t69.5 -86.5t36 -87.5t10.5 -76h-176q0 88 -64 134t-189 46q-15 0 -30 -1t-42 -5.5t-49 -14.5t-44.5 -26t-35.5 -43t-15 -62q0 -66 62.5 -95.5t267.5 -78.5q23 -5 35 -8q55 -15 95.5 -30t83.5 -39t70 -53t45 -71.5t19 -95.5z" />
<glyph unicode="t" horiz-adv-x="569" d="M538 128v-152q-57 -12 -95 -12q-118 0 -191.5 67t-73.5 163v719h-140v163h140v304h185v-304h175v-163h-175v-681q0 -59 22.5 -85t76.5 -26q33 0 76 7z" />
<glyph unicode="u" horiz-adv-x="1147" d="M116 1076h187v-673q0 -61 10 -107.5t33 -84.5t65.5 -58t102.5 -20q129 0 216.5 89t87.5 240v614h185v-1076h-178v156q-14 -24 -43 -52.5t-72 -59.5t-104 -51.5t-125 -20.5q-166 0 -265.5 95.5t-99.5 292.5v716z" />
<glyph unicode="v" horiz-adv-x="1029" d="M988 1076l-410 -1076h-194l-391 1076h206l294 -882l301 882h194z" />
<glyph unicode="w" horiz-adv-x="1489" d="M1458 1076l-311 -1076h-189l-216 832l-216 -832h-189l-309 1076h197l204 -848l220 848h202l211 -848l216 848h180z" />
<glyph unicode="x" horiz-adv-x="1029" d="M1007 0h-232l-265 405l-261 -405h-228l380 555l-361 521h233l248 -381l252 381h218l-363 -524z" />
<glyph unicode="y" horiz-adv-x="1029" d="M1007 1076q-166 -472 -314.5 -865.5t-182.5 -461.5q-66 -133 -149 -171.5t-235 -4.5v166q35 -13 63.5 -18.5t60 -3t58 22t45.5 56.5l74 171l-403 1109h204l293 -879l292 879h194z" />
<glyph unicode="z" horiz-adv-x="1029" d="M965 0h-901v140l647 784h-597v152h829v-149l-642 -780h664v-147z" />
<glyph unicode="&#x25fc;" horiz-adv-x="1075" d="M0 1075h1075v-1075h-1075v1075z" />
</font>
</defs>
</svg>
